<svg width="24" height="20" viewBox="0 0 24 20" fill="none" xmlns="http://www.w3.org/2000/svg">
<path d="M14.62 0.662018C14.8098 0.715124 14.9873 0.805116 15.1423 0.926851C15.2973 1.04859 15.4268 1.19968 15.5234 1.37149C15.62 1.5433 15.6817 1.73246 15.7052 1.92816C15.7286 2.12386 15.7133 2.32226 15.66 2.51202L11.229 18.299C11.1216 18.6821 10.8664 19.0069 10.5195 19.2018C10.1727 19.3968 9.76259 19.4459 9.37948 19.3385C8.99638 19.2311 8.67163 18.9759 8.47669 18.6291C8.28174 18.2822 8.23257 17.8721 8.33998 17.489L12.771 1.70002C12.8242 1.5103 12.9143 1.33292 13.036 1.17802C13.1578 1.02312 13.3089 0.893735 13.4807 0.797249C13.6525 0.700763 13.8417 0.63907 14.0373 0.615695C14.233 0.59232 14.4313 0.607721 14.621 0.661018L14.62 0.662018ZM7.55998 4.69702C7.84088 4.97827 7.99866 5.35952 7.99866 5.75702C7.99866 6.15452 7.84088 6.53577 7.55998 6.81702L4.37998 10L7.56198 13.182C7.84324 13.4634 8.0012 13.845 8.00111 14.2429C8.00101 14.6407 7.84288 15.0223 7.56148 15.3035C7.28009 15.5848 6.89849 15.7427 6.50063 15.7426C6.10277 15.7426 5.72124 15.5844 5.43998 15.303L1.19698 11.06C0.91608 10.7788 0.758301 10.3975 0.758301 10C0.758301 9.60252 0.91608 9.22127 1.19698 8.94002L5.43898 4.69702C5.57828 4.55763 5.74368 4.44705 5.92573 4.37161C6.10778 4.29617 6.30292 4.25734 6.49998 4.25734C6.69704 4.25734 6.89218 4.29617 7.07423 4.37161C7.25628 4.44705 7.42068 4.55763 7.55998 4.69702ZM16.44 6.81702C16.2926 6.67969 16.1744 6.51409 16.0924 6.33009C16.0104 6.1461 15.9664 5.94747 15.9628 5.74606C15.9592 5.54466 15.9963 5.3446 16.0717 5.15782C16.1472 4.97105 16.2595 4.80138 16.4019 4.65894C16.5443 4.5165 16.714 4.40421 16.9008 4.32877C17.0876 4.25333 17.2876 4.21628 17.489 4.21983C17.6904 4.22339 17.8891 4.26747 18.0731 4.34946C18.2571 4.43144 18.4227 4.54964 18.56 4.69702L22.803 8.93902C23.0842 9.22031 23.2422 9.60177 23.2422 9.99952C23.2422 10.3973 23.0842 10.7787 22.803 11.06L18.561 15.303C18.4217 15.4424 18.2564 15.5529 18.0744 15.6283C17.8924 15.7038 17.6973 15.7426 17.5003 15.7426C17.3033 15.7427 17.1083 15.7039 16.9262 15.6286C16.7442 15.5532 16.5788 15.4428 16.4395 15.3035C16.3001 15.1643 16.1896 14.9989 16.1142 14.8169C16.0387 14.6349 15.9999 14.4399 15.9999 14.2429C15.9998 14.0459 16.0386 13.8508 16.1139 13.6688C16.1893 13.4867 16.2997 13.3214 16.439 13.182L19.621 10L16.44 6.81702Z" fill="black"/>
</svg>
