<svg width="16" height="18" viewBox="0 0 16 18" fill="none" xmlns="http://www.w3.org/2000/svg">
<path d="M10.9 2.09998C10.9 2.09998 10.7 2.15998 10.36 2.26998C10.3 2.08998 10.22 1.85998 10.1 1.63998C9.71999 0.90998 9.15999 0.52998 8.47999 0.51998C8.42999 0.51998 8.38999 0.51998 8.33999 0.52998C8.31999 0.50998 8.29999 0.47998 8.27999 0.45998C7.98999 0.13998 7.60999 -0.0100198 7.15999 -1.98361e-05C6.28999 0.0299802 5.41999 0.65998 4.70999 1.77998C4.20999 2.56998 3.83999 3.55998 3.72999 4.31998C2.72999 4.62998 2.02999 4.84998 2.00999 4.84998C1.49999 5.00998 1.48999 5.02998 1.41999 5.49998C1.36999 5.85998 0.0499878 16.1 0.0499878 16.1L11.03 18V2.07998C10.98 2.07998 10.93 2.08998 10.9 2.09998ZM8.35999 2.88998C7.77999 3.06998 7.13999 3.26998 6.50999 3.45998C6.68999 2.76998 7.02999 2.08998 7.44999 1.63998C7.60999 1.46998 7.81999 1.28998 8.07999 1.17998C8.31999 1.68998 8.36999 2.39998 8.35999 2.88998ZM7.16999 0.57998C7.36999 0.57998 7.54999 0.61998 7.69999 0.71998C7.45999 0.83998 7.23999 1.01998 7.01999 1.24998C6.46999 1.83998 6.03999 2.76998 5.86999 3.65998C5.33999 3.81998 4.82999 3.97998 4.34999 4.12998C4.64999 2.71998 5.82999 0.61998 7.16999 0.57998ZM5.46999 8.56998C5.52999 9.49998 7.98999 9.70998 8.12999 11.9C8.23999 13.62 7.21999 14.8 5.73999 14.89C3.97999 15 2.99999 13.96 2.99999 13.96L3.36999 12.37C3.36999 12.37 4.34999 13.11 5.12999 13.06C5.63999 13.03 5.81999 12.61 5.80999 12.32C5.72999 11.1 3.72999 11.17 3.60999 9.16998C3.49999 7.47998 4.60999 5.77998 7.04999 5.61998C7.99999 5.55998 8.47999 5.79998 8.47999 5.79998L7.91999 7.88998C7.91999 7.88998 7.29999 7.60998 6.55999 7.64998C5.47999 7.71998 5.45999 8.39998 5.46999 8.56998ZM8.93999 2.70998C8.92999 2.26998 8.87999 1.64998 8.66999 1.11998C9.32999 1.24998 9.65999 1.98998 9.79999 2.43998C9.54999 2.51998 9.25999 2.60998 8.93999 2.70998ZM11.39 17.96L15.95 16.83C15.95 16.83 13.99 3.56998 13.98 3.47998C13.97 3.38998 13.89 3.33998 13.82 3.32998C13.75 3.31998 12.47 3.29998 12.47 3.29998C12.47 3.29998 11.69 2.53998 11.39 2.24998V17.96Z" fill="black"/>
</svg>
